<?xml version="1.0" encoding="UTF-8"?>
<!DOCTYPE svg PUBLIC "-//W3C//DTD SVG 1.1//EN" "http://www.w3.org/Graphics/SVG/1.1/DTD/svg11.dtd">
<svg version="1.2" width="147.6mm" height="147.6mm" viewBox="0 0 14760 14760" preserveAspectRatio="xMidYMid" fill-rule="evenodd" stroke-width="28.222" stroke-linejoin="round" xmlns="http://www.w3.org/2000/svg" xmlns:ooo="http://xml.openoffice.org/svg/export" xmlns:xlink="http://www.w3.org/1999/xlink" xmlns:presentation="http://sun.com/xmlns/staroffice/presentation" xmlns:smil="http://www.w3.org/2001/SMIL20/" xmlns:anim="urn:oasis:names:tc:opendocument:xmlns:animation:1.0" xml:space="preserve">
 <defs class="ClipPathGroup">
  <clipPath id="presentation_clip_path" clipPathUnits="userSpaceOnUse">
   <rect x="0" y="0" width="14760" height="14760"/>
  </clipPath>
  <clipPath id="presentation_clip_path_shrink" clipPathUnits="userSpaceOnUse">
   <rect x="14" y="14" width="14731" height="14731"/>
  </clipPath>
 </defs>
 <defs class="TextShapeIndex">
  <g ooo:slide="id1" ooo:id-list="id3 id4 id5 id6 id7 id8 id9 id10 id11 id12 id13 id14 id15 id16 id17 id18 id19 id20 id21 id22 id23 id24 id25 id26 id27"/>
 </defs>
 <defs class="EmbeddedBulletChars">
  <g id="bullet-char-template-57356" transform="scale(0.00048828125,-0.00048828125)">
   <path d="M 580,1141 L 1163,571 580,0 -4,571 580,1141 Z"/>
  </g>
  <g id="bullet-char-template-57354" transform="scale(0.00048828125,-0.00048828125)">
   <path d="M 8,1128 L 1137,1128 1137,0 8,0 8,1128 Z"/>
  </g>
  <g id="bullet-char-template-10146" transform="scale(0.00048828125,-0.00048828125)">
   <path d="M 174,0 L 602,739 174,1481 1456,739 174,0 Z M 1358,739 L 309,1346 659,739 1358,739 Z"/>
  </g>
  <g id="bullet-char-template-10132" transform="scale(0.00048828125,-0.00048828125)">
   <path d="M 2015,739 L 1276,0 717,0 1260,543 174,543 174,936 1260,936 717,1481 1274,1481 2015,739 Z"/>
  </g>
  <g id="bullet-char-template-10007" transform="scale(0.00048828125,-0.00048828125)">
   <path d="M 0,-2 C -7,14 -16,27 -25,37 L 356,567 C 262,823 215,952 215,954 215,979 228,992 255,992 264,992 276,990 289,987 310,991 331,999 354,1012 L 381,999 492,748 772,1049 836,1024 860,1049 C 881,1039 901,1025 922,1006 886,937 835,863 770,784 769,783 710,716 594,584 L 774,223 C 774,196 753,168 711,139 L 727,119 C 717,90 699,76 672,76 641,76 570,178 457,381 L 164,-76 C 142,-110 111,-127 72,-127 30,-127 9,-110 8,-76 1,-67 -2,-52 -2,-32 -2,-23 -1,-13 0,-2 Z"/>
  </g>
  <g id="bullet-char-template-10004" transform="scale(0.00048828125,-0.00048828125)">
   <path d="M 285,-33 C 182,-33 111,30 74,156 52,228 41,333 41,471 41,549 55,616 82,672 116,743 169,778 240,778 293,778 328,747 346,684 L 369,508 C 377,444 397,411 428,410 L 1163,1116 C 1174,1127 1196,1133 1229,1133 1271,1133 1292,1118 1292,1087 L 1292,965 C 1292,929 1282,901 1262,881 L 442,47 C 390,-6 338,-33 285,-33 Z"/>
  </g>
  <g id="bullet-char-template-9679" transform="scale(0.00048828125,-0.00048828125)">
   <path d="M 813,0 C 632,0 489,54 383,161 276,268 223,411 223,592 223,773 276,916 383,1023 489,1130 632,1184 813,1184 992,1184 1136,1130 1245,1023 1353,916 1407,772 1407,592 1407,412 1353,268 1245,161 1136,54 992,0 813,0 Z"/>
  </g>
  <g id="bullet-char-template-8226" transform="scale(0.00048828125,-0.00048828125)">
   <path d="M 346,457 C 273,457 209,483 155,535 101,586 74,649 74,723 74,796 101,859 155,911 209,963 273,989 346,989 419,989 480,963 531,910 582,859 608,796 608,723 608,648 583,586 532,535 482,483 420,457 346,457 Z"/>
  </g>
  <g id="bullet-char-template-8211" transform="scale(0.00048828125,-0.00048828125)">
   <path d="M -4,459 L 1135,459 1135,606 -4,606 -4,459 Z"/>
  </g>
  <g id="bullet-char-template-61548" transform="scale(0.00048828125,-0.00048828125)">
   <path d="M 173,740 C 173,903 231,1043 346,1159 462,1274 601,1332 765,1332 928,1332 1067,1274 1183,1159 1299,1043 1357,903 1357,740 1357,577 1299,437 1183,322 1067,206 928,148 765,148 601,148 462,206 346,322 231,437 173,577 173,740 Z"/>
  </g>
 </defs>
 <g>
  <g id="id2" class="Master_Slide">
   <g id="bg-id2" class="Background"/>
   <g id="bo-id2" class="BackgroundObjects"/>
  </g>
 </g>
 <g class="SlideGroup">
  <g>
   <g id="container-id1">
    <g id="id1" class="Slide" clip-path="url(#presentation_clip_path)">
     <g class="Page">
      <g class="com.sun.star.drawing.ClosedBezierShape">
       <g id="id3">
        <rect class="BoundingBox" stroke="none" fill="none" x="4088" y="4979" width="2387" height="7573"/>
        <path fill="rgb(0,0,0)" stroke="none" d="M 4255,12080 C 4171,11415 3912,9266 4281,8083 4650,6900 6398,4908 6471,4981 6544,5053 5000,7336 4719,8519 4437,9702 4860,11483 4783,12076 4705,12669 4339,12745 4255,12080 Z"/>
       </g>
      </g>
      <g class="com.sun.star.drawing.ClosedBezierShape">
       <g id="id4">
        <rect class="BoundingBox" stroke="none" fill="none" x="4549" y="5106" width="1800" height="6941"/>
        <path fill="rgb(0,0,0)" stroke="none" d="M 4912,11642 C 4785,11052 4385,9146 4624,8057 4863,6967 6274,5047 6345,5107 6417,5166 5211,7332 5051,8414 4891,9496 5408,11060 5385,11598 5362,12136 5039,12233 4912,11642 Z"/>
       </g>
      </g>
      <g class="com.sun.star.drawing.ClosedBezierShape">
       <g id="id5">
        <rect class="BoundingBox" stroke="none" fill="none" x="4969" y="5190" width="1344" height="6321"/>
        <path fill="rgb(0,0,0)" stroke="none" d="M 5523,11168 C 5364,10648 4859,8968 4990,7972 5120,6975 6239,5143 6307,5191 6375,5239 5460,7276 5400,8259 5339,9243 5923,10607 5944,11092 5965,11576 5682,11687 5523,11168 Z"/>
       </g>
      </g>
      <g class="com.sun.star.drawing.ClosedBezierShape">
       <g id="id6">
        <rect class="BoundingBox" stroke="none" fill="none" x="5303" y="5222" width="1114" height="5687"/>
        <path fill="rgb(0,0,0)" stroke="none" d="M 6034,10619 C 5851,10164 5266,8696 5306,7797 5346,6898 6209,5185 6275,5224 6340,5262 5675,7144 5697,8026 5719,8910 6350,10091 6407,10523 6463,10955 6218,11073 6034,10619 Z"/>
       </g>
      </g>
      <g class="com.sun.star.drawing.ClosedBezierShape">
       <g id="id7">
        <rect class="BoundingBox" stroke="none" fill="none" x="8392" y="2316" width="2232" height="7634"/>
        <path fill="rgb(0,0,0)" stroke="none" d="M 10372,2778 C 10478,3441 10810,5578 10480,6773 10151,7968 8470,10017 8395,9947 8320,9877 9786,7544 10028,6352 10269,5161 9787,3396 9845,2800 9902,2204 10266,2116 10372,2778 Z"/>
       </g>
      </g>
      <g class="com.sun.star.drawing.ClosedBezierShape">
       <g id="id8">
        <rect class="BoundingBox" stroke="none" fill="none" x="8512" y="2843" width="1677" height="6976"/>
        <path fill="rgb(0,0,0)" stroke="none" d="M 9729,3236 C 9875,3822 10339,5713 10137,6810 9934,7907 8588,9873 8515,9816 8442,9759 9575,7554 9698,6467 9822,5381 9253,3835 9258,3296 9263,2758 9582,2651 9729,3236 Z"/>
       </g>
      </g>
      <g class="com.sun.star.drawing.ClosedBezierShape">
       <g id="id9">
        <rect class="BoundingBox" stroke="none" fill="none" x="8545" y="3398" width="1241" height="6337"/>
        <path fill="rgb(0,0,0)" stroke="none" d="M 9133,3732 C 9309,4246 9870,5909 9773,6908 9676,7908 8619,9777 8550,9732 8480,9686 9326,7620 9354,6635 9381,5650 8752,4306 8715,3822 8678,3338 8956,3218 9133,3732 Z"/>
       </g>
      </g>
      <g class="com.sun.star.drawing.ClosedBezierShape">
       <g id="id10">
        <rect class="BoundingBox" stroke="none" fill="none" x="8261" y="4017" width="1204" height="5683"/>
        <path fill="rgb(0,0,0)" stroke="none" d="M 8642,4298 C 8841,4746 9474,6193 9464,7093 9455,7993 8649,9734 8583,9698 8517,9662 9118,7758 9066,6876 9015,5994 8344,4836 8274,4407 8203,3977 8444,3850 8642,4298 Z"/>
       </g>
      </g>
      <g class="com.sun.star.drawing.ClosedBezierShape">
       <g id="id11">
        <rect class="BoundingBox" stroke="none" fill="none" x="9669" y="6728" width="72" height="272"/>
        <path fill="rgb(255,255,255)" stroke="none" d="M 9685,6993 C 9669,6977 9664,6933 9674,6894 9687,6847 9689,6792 9683,6728 9690,6792 9703,6832 9723,6851 9739,6866 9744,6910 9733,6950 9723,6989 9702,7008 9685,6993 Z"/>
       </g>
      </g>
      <g class="com.sun.star.drawing.ClosedBezierShape">
       <g id="id12">
        <rect class="BoundingBox" stroke="none" fill="none" x="9757" y="6716" width="126" height="406"/>
        <path fill="rgb(255,255,255)" stroke="none" d="M 9780,7090 C 9754,7049 9750,6981 9772,6938 9798,6888 9808,6814 9804,6716 9810,6814 9828,6887 9859,6936 9885,6978 9889,7046 9867,7088 9845,7131 9806,7132 9780,7090 Z"/>
       </g>
      </g>
      <g class="Group">
       <g class="com.sun.star.drawing.PolyPolygonShape">
        <g id="id13">
         <rect class="BoundingBox" stroke="none" fill="none" x="3308" y="7904" width="807" height="535"/>
         <path fill="rgb(255,255,255)" stroke="none" d="M 4096,7922 L 3973,8233 3326,8420 3449,8108 4096,7922 Z"/>
         <path fill="none" stroke="rgb(0,0,0)" stroke-width="35" stroke-linejoin="miter" d="M 4096,7922 L 3973,8233 3326,8420 3449,8108 4096,7922 Z"/>
        </g>
       </g>
       <g class="com.sun.star.drawing.PolyPolygonShape">
        <g id="id14">
         <rect class="BoundingBox" stroke="none" fill="none" x="3148" y="7659" width="955" height="422"/>
         <path fill="rgb(255,255,255)" stroke="none" d="M 4084,7875 L 3813,7677 3166,7862 3436,8062 4084,7875 Z"/>
         <path fill="none" stroke="rgb(0,0,0)" stroke-width="35" stroke-linejoin="miter" d="M 4084,7875 L 3813,7677 3166,7862 3436,8062 4084,7875 Z"/>
        </g>
       </g>
       <g class="com.sun.star.drawing.ClosedBezierShape">
        <g id="id15">
         <rect class="BoundingBox" stroke="none" fill="none" x="3249" y="7484" width="2069" height="731"/>
         <path fill="rgb(255,255,255)" stroke="none" d="M 3250,8090 C 3246,8075 3255,8060 3269,8056 L 5253,7486 C 5260,7484 5267,7485 5273,7489 5280,7493 5284,7499 5286,7506 L 5316,7609 C 5319,7624 5312,7639 5297,7643 L 3314,8213 C 3299,8217 3283,8208 3279,8193 L 3250,8090 Z"/>
        </g>
       </g>
       <g class="com.sun.star.drawing.ClosedBezierShape">
        <g id="id16">
         <rect class="BoundingBox" stroke="none" fill="none" x="3222" y="7458" width="2123" height="784"/>
         <path fill="none" stroke="rgb(0,0,0)" stroke-width="53" stroke-linejoin="round" d="M 3250,8090 C 3246,8075 3255,8060 3269,8056 L 5253,7486 C 5260,7484 5267,7485 5273,7489 5280,7493 5284,7499 5286,7506 L 5316,7609 C 5319,7624 5312,7639 5297,7643 L 3314,8213 C 3299,8217 3283,8208 3279,8193 L 3250,8090 Z"/>
        </g>
       </g>
       <g class="Group">
        <g class="com.sun.star.drawing.ClosedBezierShape">
         <g id="id17">
          <rect class="BoundingBox" stroke="none" fill="none" x="5193" y="7289" width="158" height="389"/>
          <path fill="rgb(255,255,255)" stroke="none" d="M 5262,7657 C 5227,7624 5207,7558 5217,7513 5230,7457 5223,7382 5194,7289 5223,7382 5259,7449 5301,7489 5338,7522 5357,7587 5346,7633 5336,7681 5299,7691 5262,7657 Z"/>
         </g>
        </g>
        <g class="com.sun.star.drawing.ClosedBezierShape">
         <g id="id18">
          <rect class="BoundingBox" stroke="none" fill="none" x="5220" y="7465" width="126" height="405"/>
          <path fill="rgb(255,255,255)" stroke="none" d="M 5319,7495 C 5347,7536 5353,7603 5331,7646 5307,7697 5299,7772 5307,7869 5298,7771 5278,7699 5245,7651 5218,7611 5212,7543 5232,7500 5253,7456 5292,7455 5319,7495 Z"/>
         </g>
        </g>
       </g>
      </g>
      <g class="Group">
       <g class="com.sun.star.drawing.ClosedBezierShape">
        <g id="id19">
         <rect class="BoundingBox" stroke="none" fill="none" x="9663" y="6240" width="1797" height="529"/>
         <path fill="rgb(255,255,255)" stroke="none" d="M 9690,6612 C 9687,6598 9697,6583 9711,6580 L 11381,6267 C 11387,6266 11395,6267 11401,6271 11407,6275 11411,6282 11413,6289 L 11432,6396 C 11435,6410 11425,6424 11410,6427 L 9741,6740 C 9726,6743 9713,6733 9710,6719 L 9690,6612 Z"/>
         <path fill="none" stroke="rgb(0,0,0)" stroke-width="53" stroke-linejoin="round" d="M 9690,6612 C 9687,6598 9697,6583 9711,6580 L 11381,6267 C 11387,6266 11395,6267 11401,6271 11407,6275 11411,6282 11413,6289 L 11432,6396 C 11435,6410 11425,6424 11410,6427 L 9741,6740 C 9726,6743 9713,6733 9710,6719 L 9690,6612 Z"/>
        </g>
       </g>
       <g class="com.sun.star.drawing.PolyPolygonShape">
        <g id="id20">
         <rect class="BoundingBox" stroke="none" fill="none" x="10923" y="6104" width="1250" height="663"/>
         <path fill="rgb(255,255,255)" stroke="none" d="M 10950,6131 L 12145,6222 11064,6739 10950,6131 Z"/>
         <path fill="none" stroke="rgb(0,0,0)" stroke-width="53" stroke-linejoin="miter" d="M 10950,6131 L 12145,6222 11064,6739 10950,6131 Z"/>
        </g>
       </g>
      </g>
      <g class="Group">
       <g class="Group">
        <g class="com.sun.star.drawing.PolyPolygonShape">
         <g id="id21">
          <rect class="BoundingBox" stroke="none" fill="none" x="6260" y="6200" width="2141" height="2301"/>
          <path fill="rgb(255,255,255)" stroke="none" d="M 7890,8220 L 7895,8220 7901,8220 7906,8219 7911,8218 7916,8217 7921,8216 7926,8214 7931,8213 7935,8210 7940,8208 7945,8204 7950,8200 7955,8196 7960,8191 7966,8186 7971,8179 7982,8166 7994,8153 8005,8138 8016,8123 8091,8022 8197,7879 8260,7920 8168,8077 8086,8205 8049,8260 8015,8307 7983,8347 7953,8380 7925,8408 7896,8433 7866,8453 7836,8470 7805,8483 7789,8488 7774,8493 7758,8496 7742,8498 7726,8500 7709,8500 7683,8499 7659,8496 7636,8490 7625,8486 7615,8482 7605,8477 7595,8472 7586,8466 7577,8460 7569,8453 7561,8445 7554,8437 7547,8429 7540,8419 7533,8409 7520,8385 7508,8357 7495,8326 7483,8290 7471,8250 7448,8159 7312,7548 6974,8059 6853,8227 6804,8289 6764,8337 6727,8375 6691,8408 6656,8436 6621,8459 6604,8469 6587,8477 6570,8484 6553,8490 6536,8494 6519,8497 6503,8499 6486,8500 6461,8499 6437,8496 6414,8492 6393,8485 6373,8477 6355,8467 6346,8461 6337,8455 6329,8449 6321,8442 6314,8434 6307,8426 6301,8418 6295,8410 6289,8401 6284,8392 6280,8383 6276,8373 6272,8364 6269,8353 6266,8343 6264,8332 6263,8321 6261,8310 6261,8286 6261,8268 6263,8250 6267,8233 6269,8224 6272,8216 6275,8208 6278,8201 6282,8193 6286,8186 6290,8179 6295,8172 6306,8159 6317,8147 6329,8137 6336,8132 6342,8128 6349,8124 6355,8121 6362,8118 6369,8115 6376,8113 6384,8111 6398,8109 6414,8108 6428,8109 6443,8111 6459,8115 6476,8120 6494,8127 6513,8135 6533,8145 6554,8157 6594,8178 6611,8186 6627,8193 6642,8198 6655,8202 6666,8204 6671,8205 6676,8205 6681,8205 6686,8204 6696,8201 6707,8196 6719,8190 6731,8181 6744,8171 6772,8144 6802,8109 6834,8067 6869,8018 6906,7961 7276,7365 7145,6739 7123,6635 7102,6552 7092,6519 7083,6490 7073,6467 7068,6458 7064,6449 7059,6442 7054,6435 7049,6429 7043,6423 7037,6417 7030,6412 7023,6408 7015,6404 7008,6400 6999,6397 6991,6394 6982,6392 6963,6389 6942,6388 6928,6389 6909,6392 6856,6402 6783,6420 6689,6444 6671,6368 6721,6348 6903,6283 7052,6237 7113,6221 7167,6209 7212,6202 7249,6200 7260,6200 7271,6201 7281,6203 7291,6206 7301,6209 7311,6213 7320,6218 7329,6224 7337,6230 7345,6237 7353,6244 7360,6253 7367,6262 7374,6272 7381,6283 7387,6294 7399,6320 7410,6352 7423,6388 7435,6430 7459,6528 7484,6648 7533,6928 7645,6740 7747,6582 7837,6456 7878,6404 7917,6360 7954,6323 7991,6290 8029,6263 8066,6240 8085,6231 8103,6223 8122,6216 8140,6210 8159,6206 8178,6203 8196,6201 8215,6200 8235,6201 8254,6203 8272,6208 8289,6213 8305,6221 8320,6230 8328,6235 8335,6241 8348,6253 8360,6267 8366,6274 8371,6282 8375,6290 8380,6297 8384,6306 8387,6314 8390,6322 8393,6331 8395,6340 8397,6349 8399,6368 8400,6388 8399,6408 8397,6427 8394,6445 8389,6462 8386,6470 8383,6478 8380,6486 8376,6493 8372,6500 8367,6507 8362,6514 8357,6521 8352,6527 8346,6533 8340,6538 8334,6543 8327,6547 8321,6552 8314,6555 8307,6559 8300,6562 8292,6564 8276,6568 8260,6571 8242,6571 8230,6571 8218,6569 8204,6565 8190,6561 8175,6555 8159,6547 8142,6538 8125,6528 8107,6518 8090,6509 8075,6502 8060,6496 8047,6491 8034,6488 8022,6486 8017,6485 8012,6485 8003,6486 7995,6487 7986,6490 7976,6495 7956,6507 7935,6523 7912,6545 7888,6572 7836,6639 7778,6725 7714,6831 7569,7101 7570,7118 7572,7141 7581,7202 7615,7387 7750,8012 7762,8060 7776,8103 7783,8122 7791,8139 7799,8154 7808,8168 7816,8180 7826,8191 7836,8200 7846,8207 7856,8213 7867,8217 7878,8219 7890,8220 Z"/>
         </g>
        </g>
       </g>
       <g class="Group">
        <g class="com.sun.star.drawing.PolyPolygonShape">
         <g id="id22">
          <rect class="BoundingBox" stroke="none" fill="none" x="6212" y="6152" width="2141" height="2301"/>
          <path fill="rgb(255,255,255)" stroke="none" d="M 7842,8172 L 7847,8172 7853,8172 7858,8171 7863,8170 7868,8169 7873,8168 7878,8166 7883,8165 7887,8162 7892,8160 7897,8156 7902,8152 7907,8148 7912,8143 7918,8138 7923,8131 7934,8118 7946,8105 7957,8090 7968,8075 8043,7974 8149,7831 8212,7872 8120,8029 8038,8157 8001,8212 7967,8259 7935,8299 7905,8332 7877,8360 7848,8385 7818,8405 7788,8422 7757,8435 7741,8440 7726,8445 7710,8448 7694,8450 7678,8452 7661,8452 7635,8451 7611,8448 7588,8442 7577,8438 7567,8434 7557,8429 7547,8424 7538,8418 7529,8412 7521,8405 7513,8397 7506,8389 7499,8381 7492,8371 7485,8361 7472,8337 7460,8309 7447,8278 7435,8242 7423,8202 7400,8111 7264,7500 6926,8011 6805,8179 6756,8241 6716,8289 6679,8327 6643,8360 6608,8388 6573,8411 6556,8421 6539,8429 6522,8436 6505,8442 6488,8446 6471,8449 6455,8451 6438,8452 6413,8451 6389,8448 6366,8444 6345,8437 6325,8429 6307,8419 6298,8413 6289,8407 6281,8401 6273,8394 6266,8386 6259,8378 6253,8370 6247,8362 6241,8353 6236,8344 6232,8335 6228,8325 6224,8316 6221,8305 6218,8295 6216,8284 6215,8273 6213,8262 6213,8238 6213,8220 6215,8202 6219,8185 6221,8176 6224,8168 6227,8160 6230,8153 6234,8145 6238,8138 6242,8131 6247,8124 6258,8111 6269,8099 6281,8089 6288,8084 6294,8080 6301,8076 6307,8073 6314,8070 6321,8067 6328,8065 6336,8063 6350,8061 6366,8060 6380,8061 6395,8063 6411,8067 6428,8072 6446,8079 6465,8087 6485,8097 6506,8109 6546,8130 6563,8138 6579,8145 6594,8150 6607,8154 6618,8156 6623,8157 6628,8157 6633,8157 6638,8156 6648,8153 6659,8148 6671,8142 6683,8133 6696,8123 6724,8096 6754,8061 6786,8019 6821,7970 6858,7913 7228,7317 7097,6691 7075,6587 7054,6504 7044,6471 7035,6442 7025,6419 7020,6410 7016,6401 7011,6394 7006,6387 7001,6381 6995,6375 6989,6369 6982,6364 6975,6360 6967,6356 6960,6352 6951,6349 6943,6346 6934,6344 6915,6341 6894,6340 6880,6341 6861,6344 6808,6354 6735,6372 6641,6396 6623,6320 6673,6300 6855,6235 7004,6189 7065,6173 7119,6161 7164,6154 7201,6152 7212,6152 7223,6153 7233,6155 7243,6158 7253,6161 7263,6165 7272,6170 7281,6176 7289,6182 7297,6189 7305,6196 7312,6205 7319,6214 7326,6224 7333,6235 7339,6246 7351,6272 7362,6304 7375,6340 7387,6382 7411,6480 7436,6600 7485,6880 7597,6692 7699,6534 7789,6408 7830,6356 7869,6312 7906,6275 7943,6242 7981,6215 8018,6192 8037,6183 8055,6175 8074,6168 8092,6162 8111,6158 8130,6155 8148,6153 8167,6152 8187,6153 8206,6155 8224,6160 8241,6165 8257,6173 8272,6182 8280,6187 8287,6193 8300,6205 8312,6219 8318,6226 8323,6234 8327,6242 8332,6249 8336,6258 8339,6266 8342,6274 8345,6283 8347,6292 8349,6301 8351,6320 8352,6340 8351,6360 8349,6379 8346,6397 8341,6414 8338,6422 8335,6430 8332,6438 8328,6445 8324,6452 8319,6459 8314,6466 8309,6473 8304,6479 8298,6485 8292,6490 8286,6495 8279,6499 8273,6504 8266,6507 8259,6511 8252,6514 8244,6516 8228,6520 8212,6523 8194,6523 8182,6523 8170,6521 8156,6517 8142,6513 8127,6507 8111,6499 8094,6490 8077,6480 8059,6470 8042,6461 8027,6454 8012,6448 7999,6443 7986,6440 7974,6438 7969,6437 7964,6437 7955,6438 7947,6439 7938,6442 7928,6447 7908,6459 7887,6475 7864,6497 7840,6524 7788,6591 7730,6677 7666,6783 7521,7053 7522,7070 7524,7093 7533,7154 7567,7339 7702,7964 7714,8012 7728,8055 7735,8074 7743,8091 7751,8106 7760,8120 7768,8132 7778,8143 7788,8152 7798,8159 7808,8165 7819,8169 7830,8171 7842,8172 Z"/>
         </g>
        </g>
       </g>
       <g class="Group">
        <g class="com.sun.star.drawing.PolyPolygonShape">
         <g id="id23">
          <rect class="BoundingBox" stroke="none" fill="none" x="6212" y="6216" width="2141" height="2301"/>
          <path fill="rgb(255,255,255)" stroke="none" d="M 7842,8236 L 7847,8236 7853,8236 7858,8235 7863,8234 7868,8233 7873,8232 7878,8230 7883,8229 7887,8226 7892,8224 7897,8220 7902,8216 7907,8212 7912,8207 7918,8202 7923,8195 7934,8182 7946,8169 7957,8154 7968,8139 8043,8038 8149,7895 8212,7936 8120,8093 8038,8221 8001,8276 7967,8323 7935,8363 7905,8396 7877,8424 7848,8449 7818,8469 7788,8486 7757,8499 7741,8504 7726,8509 7710,8512 7694,8514 7678,8516 7661,8516 7635,8515 7611,8512 7588,8506 7577,8502 7567,8498 7557,8493 7547,8488 7538,8482 7529,8476 7521,8469 7513,8461 7506,8453 7499,8445 7492,8435 7485,8425 7472,8401 7460,8373 7447,8342 7435,8306 7423,8266 7400,8175 7264,7564 6926,8075 6805,8243 6756,8305 6716,8353 6679,8391 6643,8424 6608,8452 6573,8475 6556,8485 6539,8493 6522,8500 6505,8506 6488,8510 6471,8513 6455,8515 6438,8516 6413,8515 6389,8512 6366,8508 6345,8501 6325,8493 6307,8483 6298,8477 6289,8471 6281,8465 6273,8458 6266,8450 6259,8442 6253,8434 6247,8426 6241,8417 6236,8408 6232,8399 6228,8389 6224,8380 6221,8369 6218,8359 6216,8348 6215,8337 6213,8326 6213,8302 6213,8284 6215,8266 6219,8249 6221,8240 6224,8232 6227,8224 6230,8217 6234,8209 6238,8202 6242,8195 6247,8188 6258,8175 6269,8163 6281,8153 6288,8148 6294,8144 6301,8140 6307,8137 6314,8134 6321,8131 6328,8129 6336,8127 6350,8125 6366,8124 6380,8125 6395,8127 6411,8131 6428,8136 6446,8143 6465,8151 6485,8161 6506,8173 6546,8194 6563,8202 6579,8209 6594,8214 6607,8218 6618,8220 6623,8221 6628,8221 6633,8221 6638,8220 6648,8217 6659,8212 6671,8206 6683,8197 6696,8187 6724,8160 6754,8125 6786,8083 6821,8034 6858,7977 7228,7381 7097,6755 7075,6651 7054,6568 7044,6535 7035,6506 7025,6483 7020,6474 7016,6465 7011,6458 7006,6451 7001,6445 6995,6439 6989,6433 6982,6428 6975,6424 6967,6420 6960,6416 6951,6413 6943,6410 6934,6408 6915,6405 6894,6404 6880,6405 6861,6408 6808,6418 6735,6436 6641,6460 6623,6384 6673,6364 6855,6299 7004,6253 7065,6237 7119,6225 7164,6218 7201,6216 7212,6216 7223,6217 7233,6219 7243,6222 7253,6225 7263,6229 7272,6234 7281,6240 7289,6246 7297,6253 7305,6260 7312,6269 7319,6278 7326,6288 7333,6299 7339,6310 7351,6336 7362,6368 7375,6404 7387,6446 7411,6544 7436,6664 7485,6944 7597,6756 7699,6598 7789,6472 7830,6420 7869,6376 7906,6339 7943,6306 7981,6279 8018,6256 8037,6247 8055,6239 8074,6232 8092,6226 8111,6222 8130,6219 8148,6217 8167,6216 8187,6217 8206,6219 8224,6224 8241,6229 8257,6237 8272,6246 8280,6251 8287,6257 8300,6269 8312,6283 8318,6290 8323,6298 8327,6306 8332,6313 8336,6322 8339,6330 8342,6338 8345,6347 8347,6356 8349,6365 8351,6384 8352,6404 8351,6424 8349,6443 8346,6461 8341,6478 8338,6486 8335,6494 8332,6502 8328,6509 8324,6516 8319,6523 8314,6530 8309,6537 8304,6543 8298,6549 8292,6554 8286,6559 8279,6563 8273,6568 8266,6571 8259,6575 8252,6578 8244,6580 8228,6584 8212,6587 8194,6587 8182,6587 8170,6585 8156,6581 8142,6577 8127,6571 8111,6563 8094,6554 8077,6544 8059,6534 8042,6525 8027,6518 8012,6512 7999,6507 7986,6504 7974,6502 7969,6501 7964,6501 7955,6502 7947,6503 7938,6506 7928,6511 7908,6523 7887,6539 7864,6561 7840,6588 7788,6655 7730,6741 7666,6847 7521,7117 7522,7134 7524,7157 7533,7218 7567,7403 7702,8028 7714,8076 7728,8119 7735,8138 7743,8155 7751,8170 7760,8184 7768,8196 7778,8207 7788,8216 7798,8223 7808,8229 7819,8233 7830,8235 7842,8236 Z"/>
         </g>
        </g>
       </g>
       <g class="Group">
        <g class="com.sun.star.drawing.PolyPolygonShape">
         <g id="id24">
          <rect class="BoundingBox" stroke="none" fill="none" x="6248" y="6264" width="2141" height="2301"/>
          <path fill="rgb(255,255,255)" stroke="none" d="M 7878,8284 L 7883,8284 7889,8284 7894,8283 7899,8282 7904,8281 7909,8280 7914,8278 7919,8277 7923,8274 7928,8272 7933,8268 7938,8264 7943,8260 7948,8255 7954,8250 7959,8243 7970,8230 7982,8217 7993,8202 8004,8187 8079,8086 8185,7943 8248,7984 8156,8141 8074,8269 8037,8324 8003,8371 7971,8411 7941,8444 7913,8472 7884,8497 7854,8517 7824,8534 7793,8547 7777,8552 7762,8557 7746,8560 7730,8562 7714,8564 7697,8564 7671,8563 7647,8560 7624,8554 7613,8550 7603,8546 7593,8541 7583,8536 7574,8530 7565,8524 7557,8517 7549,8509 7542,8501 7535,8493 7528,8483 7521,8473 7508,8449 7496,8421 7483,8390 7471,8354 7459,8314 7436,8223 7300,7612 6962,8123 6841,8291 6792,8353 6752,8401 6715,8439 6679,8472 6644,8500 6609,8523 6592,8533 6575,8541 6558,8548 6541,8554 6524,8558 6507,8561 6491,8563 6474,8564 6449,8563 6425,8560 6402,8556 6381,8549 6361,8541 6343,8531 6334,8525 6325,8519 6317,8513 6309,8506 6302,8498 6295,8490 6289,8482 6283,8474 6277,8465 6272,8456 6268,8447 6264,8437 6260,8428 6257,8417 6254,8407 6252,8396 6251,8385 6249,8374 6249,8350 6249,8332 6251,8314 6255,8297 6257,8288 6260,8280 6263,8272 6266,8265 6270,8257 6274,8250 6278,8243 6283,8236 6294,8223 6305,8211 6317,8201 6324,8196 6330,8192 6337,8188 6343,8185 6350,8182 6357,8179 6364,8177 6372,8175 6386,8173 6402,8172 6416,8173 6431,8175 6447,8179 6464,8184 6482,8191 6501,8199 6521,8209 6542,8221 6582,8242 6599,8250 6615,8257 6630,8262 6643,8266 6654,8268 6659,8269 6664,8269 6669,8269 6674,8268 6684,8265 6695,8260 6707,8254 6719,8245 6732,8235 6760,8208 6790,8173 6822,8131 6857,8082 6894,8025 7264,7429 7133,6803 7111,6699 7090,6616 7080,6583 7071,6554 7061,6531 7056,6522 7052,6513 7047,6506 7042,6499 7037,6493 7031,6487 7025,6481 7018,6476 7011,6472 7003,6468 6996,6464 6987,6461 6979,6458 6970,6456 6951,6453 6930,6452 6916,6453 6897,6456 6844,6466 6771,6484 6677,6508 6659,6432 6709,6412 6891,6347 7040,6301 7101,6285 7155,6273 7200,6266 7237,6264 7248,6264 7259,6265 7269,6267 7279,6270 7289,6273 7299,6277 7308,6282 7317,6288 7325,6294 7333,6301 7341,6308 7348,6317 7355,6326 7362,6336 7369,6347 7375,6358 7387,6384 7398,6416 7411,6452 7423,6494 7447,6592 7472,6712 7521,6992 7633,6804 7735,6646 7825,6520 7866,6468 7905,6424 7942,6387 7979,6354 8017,6327 8054,6304 8073,6295 8091,6287 8110,6280 8128,6274 8147,6270 8166,6267 8184,6265 8203,6264 8223,6265 8242,6267 8260,6272 8277,6277 8293,6285 8308,6294 8316,6299 8323,6305 8336,6317 8348,6331 8354,6338 8359,6346 8363,6354 8368,6361 8372,6370 8375,6378 8378,6386 8381,6395 8383,6404 8385,6413 8387,6432 8388,6452 8387,6472 8385,6491 8382,6509 8377,6526 8374,6534 8371,6542 8368,6550 8364,6557 8360,6564 8355,6571 8350,6578 8345,6585 8340,6591 8334,6597 8328,6602 8322,6607 8315,6611 8309,6616 8302,6619 8295,6623 8288,6626 8280,6628 8264,6632 8248,6635 8230,6635 8218,6635 8206,6633 8192,6629 8178,6625 8163,6619 8147,6611 8130,6602 8113,6592 8095,6582 8078,6573 8063,6566 8048,6560 8035,6555 8022,6552 8010,6550 8005,6549 8000,6549 7991,6550 7983,6551 7974,6554 7964,6559 7944,6571 7923,6587 7900,6609 7876,6636 7824,6703 7766,6789 7702,6895 7557,7165 7558,7182 7560,7205 7569,7266 7603,7451 7738,8076 7750,8124 7764,8167 7771,8186 7779,8203 7787,8218 7796,8232 7804,8244 7814,8255 7824,8264 7834,8271 7844,8277 7855,8281 7866,8283 7878,8284 Z"/>
         </g>
        </g>
       </g>
       <g class="Group">
        <g class="com.sun.star.drawing.PolyPolygonShape">
         <g id="id25">
          <rect class="BoundingBox" stroke="none" fill="none" x="6284" y="6192" width="2141" height="2301"/>
          <path fill="rgb(255,255,255)" stroke="none" d="M 7914,8212 L 7919,8212 7925,8212 7930,8211 7935,8210 7940,8209 7945,8208 7950,8206 7955,8205 7959,8202 7964,8200 7969,8196 7974,8192 7979,8188 7984,8183 7990,8178 7995,8171 8006,8158 8018,8145 8029,8130 8040,8115 8115,8014 8221,7871 8284,7912 8192,8069 8110,8197 8073,8252 8039,8299 8007,8339 7977,8372 7949,8400 7920,8425 7890,8445 7860,8462 7829,8475 7813,8480 7798,8485 7782,8488 7766,8490 7750,8492 7733,8492 7707,8491 7683,8488 7660,8482 7649,8478 7639,8474 7629,8469 7619,8464 7610,8458 7601,8452 7593,8445 7585,8437 7578,8429 7571,8421 7564,8411 7557,8401 7544,8377 7532,8349 7519,8318 7507,8282 7495,8242 7472,8151 7336,7540 6998,8051 6877,8219 6828,8281 6788,8329 6751,8367 6715,8400 6680,8428 6645,8451 6628,8461 6611,8469 6594,8476 6577,8482 6560,8486 6543,8489 6527,8491 6510,8492 6485,8491 6461,8488 6438,8484 6417,8477 6397,8469 6379,8459 6370,8453 6361,8447 6353,8441 6345,8434 6338,8426 6331,8418 6325,8410 6319,8402 6313,8393 6308,8384 6304,8375 6300,8365 6296,8356 6293,8345 6290,8335 6288,8324 6287,8313 6285,8302 6285,8278 6285,8260 6287,8242 6291,8225 6293,8216 6296,8208 6299,8200 6302,8193 6306,8185 6310,8178 6314,8171 6319,8164 6330,8151 6341,8139 6353,8129 6360,8124 6366,8120 6373,8116 6379,8113 6386,8110 6393,8107 6400,8105 6408,8103 6422,8101 6438,8100 6452,8101 6467,8103 6483,8107 6500,8112 6518,8119 6537,8127 6557,8137 6578,8149 6618,8170 6635,8178 6651,8185 6666,8190 6679,8194 6690,8196 6695,8197 6700,8197 6705,8197 6710,8196 6720,8193 6731,8188 6743,8182 6755,8173 6768,8163 6796,8136 6826,8101 6858,8059 6893,8010 6930,7953 7300,7357 7169,6731 7147,6627 7126,6544 7116,6511 7107,6482 7097,6459 7092,6450 7088,6441 7083,6434 7078,6427 7073,6421 7067,6415 7061,6409 7054,6404 7047,6400 7039,6396 7032,6392 7023,6389 7015,6386 7006,6384 6987,6381 6966,6380 6952,6381 6933,6384 6880,6394 6807,6412 6713,6436 6695,6360 6745,6340 6927,6275 7076,6229 7137,6213 7191,6201 7236,6194 7273,6192 7284,6192 7295,6193 7305,6195 7315,6198 7325,6201 7335,6205 7344,6210 7353,6216 7361,6222 7369,6229 7377,6236 7384,6245 7391,6254 7398,6264 7405,6275 7411,6286 7423,6312 7434,6344 7447,6380 7459,6422 7483,6520 7508,6640 7557,6920 7669,6732 7771,6574 7861,6448 7902,6396 7941,6352 7978,6315 8015,6282 8053,6255 8090,6232 8109,6223 8127,6215 8146,6208 8164,6202 8183,6198 8202,6195 8220,6193 8239,6192 8259,6193 8278,6195 8296,6200 8313,6205 8329,6213 8344,6222 8352,6227 8359,6233 8372,6245 8384,6259 8390,6266 8395,6274 8399,6282 8404,6289 8408,6298 8411,6306 8414,6314 8417,6323 8419,6332 8421,6341 8423,6360 8424,6380 8423,6400 8421,6419 8418,6437 8413,6454 8410,6462 8407,6470 8404,6478 8400,6485 8396,6492 8391,6499 8386,6506 8381,6513 8376,6519 8370,6525 8364,6530 8358,6535 8351,6539 8345,6544 8338,6547 8331,6551 8324,6554 8316,6556 8300,6560 8284,6563 8266,6563 8254,6563 8242,6561 8228,6557 8214,6553 8199,6547 8183,6539 8166,6530 8149,6520 8131,6510 8114,6501 8099,6494 8084,6488 8071,6483 8058,6480 8046,6478 8041,6477 8036,6477 8027,6478 8019,6479 8010,6482 8000,6487 7980,6499 7959,6515 7936,6537 7912,6564 7860,6631 7802,6717 7738,6823 7593,7093 7594,7110 7596,7133 7605,7194 7639,7379 7774,8004 7786,8052 7800,8095 7807,8114 7815,8131 7823,8146 7832,8160 7840,8172 7850,8183 7860,8192 7870,8199 7880,8205 7891,8209 7902,8211 7914,8212 Z"/>
         </g>
        </g>
       </g>
       <g class="Group">
        <g class="com.sun.star.drawing.PolyPolygonShape">
         <g id="id26">
          <rect class="BoundingBox" stroke="none" fill="none" x="6224" y="6252" width="2141" height="2301"/>
          <path fill="rgb(255,255,255)" stroke="none" d="M 7854,8272 L 7859,8272 7865,8272 7870,8271 7875,8270 7880,8269 7885,8268 7890,8266 7895,8265 7899,8262 7904,8260 7909,8256 7914,8252 7919,8248 7924,8243 7930,8238 7935,8231 7946,8218 7958,8205 7969,8190 7980,8175 8055,8074 8161,7931 8224,7972 8132,8129 8050,8257 8013,8312 7979,8359 7947,8399 7917,8432 7889,8460 7860,8485 7830,8505 7800,8522 7769,8535 7753,8540 7738,8545 7722,8548 7706,8550 7690,8552 7673,8552 7647,8551 7623,8548 7600,8542 7589,8538 7579,8534 7569,8529 7559,8524 7550,8518 7541,8512 7533,8505 7525,8497 7518,8489 7511,8481 7504,8471 7497,8461 7484,8437 7472,8409 7459,8378 7447,8342 7435,8302 7412,8211 7276,7600 6938,8111 6817,8279 6768,8341 6728,8389 6691,8427 6655,8460 6620,8488 6585,8511 6568,8521 6551,8529 6534,8536 6517,8542 6500,8546 6483,8549 6467,8551 6450,8552 6425,8551 6401,8548 6378,8544 6357,8537 6337,8529 6319,8519 6310,8513 6301,8507 6293,8501 6285,8494 6278,8486 6271,8478 6265,8470 6259,8462 6253,8453 6248,8444 6244,8435 6240,8425 6236,8416 6233,8405 6230,8395 6228,8384 6227,8373 6225,8362 6225,8338 6225,8320 6227,8302 6231,8285 6233,8276 6236,8268 6239,8260 6242,8253 6246,8245 6250,8238 6254,8231 6259,8224 6270,8211 6281,8199 6293,8189 6300,8184 6306,8180 6313,8176 6319,8173 6326,8170 6333,8167 6340,8165 6348,8163 6362,8161 6378,8160 6392,8161 6407,8163 6423,8167 6440,8172 6458,8179 6477,8187 6497,8197 6518,8209 6558,8230 6575,8238 6591,8245 6606,8250 6619,8254 6630,8256 6635,8257 6640,8257 6645,8257 6650,8256 6660,8253 6671,8248 6683,8242 6695,8233 6708,8223 6736,8196 6766,8161 6798,8119 6833,8070 6870,8013 7240,7417 7109,6791 7087,6687 7066,6604 7056,6571 7047,6542 7037,6519 7032,6510 7028,6501 7023,6494 7018,6487 7013,6481 7007,6475 7001,6469 6994,6464 6987,6460 6979,6456 6972,6452 6963,6449 6955,6446 6946,6444 6927,6441 6906,6440 6892,6441 6873,6444 6820,6454 6747,6472 6653,6496 6635,6420 6685,6400 6867,6335 7016,6289 7077,6273 7131,6261 7176,6254 7213,6252 7224,6252 7235,6253 7245,6255 7255,6258 7265,6261 7275,6265 7284,6270 7293,6276 7301,6282 7309,6289 7317,6296 7324,6305 7331,6314 7338,6324 7345,6335 7351,6346 7363,6372 7374,6404 7387,6440 7399,6482 7423,6580 7448,6700 7497,6980 7609,6792 7711,6634 7801,6508 7842,6456 7881,6412 7918,6375 7955,6342 7993,6315 8030,6292 8049,6283 8067,6275 8086,6268 8104,6262 8123,6258 8142,6255 8160,6253 8179,6252 8199,6253 8218,6255 8236,6260 8253,6265 8269,6273 8284,6282 8292,6287 8299,6293 8312,6305 8324,6319 8330,6326 8335,6334 8339,6342 8344,6349 8348,6358 8351,6366 8354,6374 8357,6383 8359,6392 8361,6401 8363,6420 8364,6440 8363,6460 8361,6479 8358,6497 8353,6514 8350,6522 8347,6530 8344,6538 8340,6545 8336,6552 8331,6559 8326,6566 8321,6573 8316,6579 8310,6585 8304,6590 8298,6595 8291,6599 8285,6604 8278,6607 8271,6611 8264,6614 8256,6616 8240,6620 8224,6623 8206,6623 8194,6623 8182,6621 8168,6617 8154,6613 8139,6607 8123,6599 8106,6590 8089,6580 8071,6570 8054,6561 8039,6554 8024,6548 8011,6543 7998,6540 7986,6538 7981,6537 7976,6537 7967,6538 7959,6539 7950,6542 7940,6547 7920,6559 7899,6575 7876,6597 7852,6624 7800,6691 7742,6777 7678,6883 7533,7153 7534,7170 7536,7193 7545,7254 7579,7439 7714,8064 7726,8112 7740,8155 7747,8174 7755,8191 7763,8206 7772,8220 7780,8232 7790,8243 7800,8252 7810,8259 7820,8265 7831,8269 7842,8271 7854,8272 Z"/>
         </g>
        </g>
       </g>
      </g>
      <g class="Group">
       <g class="com.sun.star.drawing.PolyPolygonShape">
        <g id="id27">
         <rect class="BoundingBox" stroke="none" fill="none" x="6249" y="6200" width="2141" height="2301"/>
         <path fill="rgb(0,0,0)" stroke="none" d="M 7879,8220 L 7884,8220 7890,8220 7895,8219 7900,8218 7905,8217 7910,8216 7915,8214 7920,8213 7924,8210 7929,8208 7934,8204 7939,8200 7944,8196 7949,8191 7955,8186 7960,8179 7971,8166 7983,8153 7994,8138 8005,8123 8080,8022 8186,7879 8249,7920 8157,8077 8075,8205 8038,8260 8004,8307 7972,8347 7942,8380 7914,8408 7885,8433 7855,8453 7825,8470 7794,8483 7778,8488 7763,8493 7747,8496 7731,8498 7715,8500 7698,8500 7672,8499 7648,8496 7625,8490 7614,8486 7604,8482 7594,8477 7584,8472 7575,8466 7566,8460 7558,8453 7550,8445 7543,8437 7536,8429 7529,8419 7522,8409 7509,8385 7497,8357 7484,8326 7472,8290 7460,8250 7437,8159 7301,7548 6963,8059 6842,8227 6793,8289 6753,8337 6716,8375 6680,8408 6645,8436 6610,8459 6593,8469 6576,8477 6559,8484 6542,8490 6525,8494 6508,8497 6492,8499 6475,8500 6450,8499 6426,8496 6403,8492 6382,8485 6362,8477 6344,8467 6335,8461 6326,8455 6318,8449 6310,8442 6303,8434 6296,8426 6290,8418 6284,8410 6278,8401 6273,8392 6269,8383 6265,8373 6261,8364 6258,8353 6255,8343 6253,8332 6252,8321 6250,8310 6250,8286 6250,8268 6252,8250 6256,8233 6258,8224 6261,8216 6264,8208 6267,8201 6271,8193 6275,8186 6279,8179 6284,8172 6295,8159 6306,8147 6318,8137 6325,8132 6331,8128 6338,8124 6344,8121 6351,8118 6358,8115 6365,8113 6373,8111 6387,8109 6403,8108 6417,8109 6432,8111 6448,8115 6465,8120 6483,8127 6502,8135 6522,8145 6543,8157 6583,8178 6600,8186 6616,8193 6631,8198 6644,8202 6655,8204 6660,8205 6665,8205 6670,8205 6675,8204 6685,8201 6696,8196 6708,8190 6720,8181 6733,8171 6761,8144 6791,8109 6823,8067 6858,8018 6895,7961 7265,7365 7134,6739 7112,6635 7091,6552 7081,6519 7072,6490 7062,6467 7057,6458 7053,6449 7048,6442 7043,6435 7038,6429 7032,6423 7026,6417 7019,6412 7012,6408 7004,6404 6997,6400 6988,6397 6980,6394 6971,6392 6952,6389 6931,6388 6917,6389 6898,6392 6845,6402 6772,6420 6678,6444 6660,6368 6710,6348 6892,6283 7041,6237 7102,6221 7156,6209 7201,6202 7238,6200 7249,6200 7260,6201 7270,6203 7280,6206 7290,6209 7300,6213 7309,6218 7318,6224 7326,6230 7334,6237 7342,6244 7349,6253 7356,6262 7363,6272 7370,6283 7376,6294 7388,6320 7399,6352 7412,6388 7424,6430 7448,6528 7473,6648 7522,6928 7634,6740 7736,6582 7826,6456 7867,6404 7906,6360 7943,6323 7980,6290 8018,6263 8055,6240 8074,6231 8092,6223 8111,6216 8129,6210 8148,6206 8167,6203 8185,6201 8204,6200 8224,6201 8243,6203 8261,6208 8278,6213 8294,6221 8309,6230 8317,6235 8324,6241 8337,6253 8349,6267 8355,6274 8360,6282 8364,6290 8369,6297 8373,6306 8376,6314 8379,6322 8382,6331 8384,6340 8386,6349 8388,6368 8389,6388 8388,6408 8386,6427 8383,6445 8378,6462 8375,6470 8372,6478 8369,6486 8365,6493 8361,6500 8356,6507 8351,6514 8346,6521 8341,6527 8335,6533 8329,6538 8323,6543 8316,6547 8310,6552 8303,6555 8296,6559 8289,6562 8281,6564 8265,6568 8249,6571 8231,6571 8219,6571 8207,6569 8193,6565 8179,6561 8164,6555 8148,6547 8131,6538 8114,6528 8096,6518 8079,6509 8064,6502 8049,6496 8036,6491 8023,6488 8011,6486 8006,6485 8001,6485 7992,6486 7984,6487 7975,6490 7965,6495 7945,6507 7924,6523 7901,6545 7877,6572 7825,6639 7767,6725 7703,6831 7558,7101 7559,7118 7561,7141 7570,7202 7604,7387 7739,8012 7751,8060 7765,8103 7772,8122 7780,8139 7788,8154 7797,8168 7805,8180 7815,8191 7825,8200 7835,8207 7845,8213 7856,8217 7867,8219 7879,8220 Z"/>
        </g>
       </g>
      </g>
     </g>
    </g>
   </g>
  </g>
 </g>
</svg>