<svg version="1.1" viewBox="0.0 0.0 557.8582677165355 557.8582677165355" fill="none" stroke="none" stroke-linecap="square" stroke-miterlimit="10" xmlns:xlink="http://www.w3.org/1999/xlink" xmlns="http://www.w3.org/2000/svg"><clipPath id="p.0"><path d="m0 0l557.8583 0l0 557.8583l-557.8583 0l0 -557.8583z" clip-rule="nonzero"/></clipPath><g clip-path="url(#p.0)"><path fill="#000000" fill-opacity="0.0" d="m0 0l557.8583 0l0 557.8583l-557.8583 0z" fill-rule="evenodd"/><path fill="#000000" fill-opacity="0.0" d="m332.2047 130.87665l157.92126 0l0 297.25983l-157.92126 0z" fill-rule="evenodd"/><path fill="#000000" d="m364.03287 272.41907l0 -5.515625l40.59375 0l0 5.515625l-40.59375 0zm0 21.5625l0 -5.515625l40.59375 0l0 5.515625l-40.59375 0zm53.663727 5.78125l0 -5.78125l38.171875 -15.03125l0 2.984375l-38.171875 -15.03125l0 -5.78125l40.59375 16.234375l0 6.171875l-40.59375 16.234375z" fill-rule="nonzero"/><path fill="#000000" fill-opacity="0.0" d="m90.20473 130.87665l157.92126 0l0 297.25983l-157.92126 0z" fill-rule="evenodd"/><path fill="#000000" d="m148.86473 272.41907l0 -5.515625l40.59375 0l0 5.515625l-40.59375 0zm0 21.5625l0 -5.515625l40.59375 0l0 5.515625l-40.59375 0z" fill-rule="nonzero"/><path fill="#000000" fill-opacity="0.0" d="m203.35432 0l151.14961 0l0 514.45667l-151.14961 0z" fill-rule="evenodd"/><path fill="#000000" d="m247.37762 321.5346q-5.890625 0 -9.359375 -3.03125q-3.46875 -3.03125 -3.46875 -7.890625q0 -4.84375 2.859375 -7.796875q2.875 -2.953125 6.6875 -2.953125q4.15625 0 6.140625 2.171875q2.0 2.171875 2.515625 4.421875q3.46875 -0.6875 7.28125 -7.796875q3.8125 -7.109375 9.015625 -22.53125q-2.953125 -7.984375 -4.859375 -13.78125q-1.90625 -5.8125 -3.984375 -10.484375q-1.734375 -3.8125 -3.125 -5.109375q-1.375 -1.3125 -3.453125 -1.484375q-2.4375 0 -4.78125 2.859375q-2.328125 2.859375 -3.015625 11.53125l-8.15625 -0.875q0.171875 -3.640625 1.390625 -8.3125q1.21875 -4.6875 3.71875 -9.1875q2.515625 -4.5 6.9375 -7.359375q4.421875 -2.875 11.015625 -2.875q6.75 0 10.296875 3.90625q3.5625 3.90625 6.15625 10.65625q1.21875 3.125 2.25 6.25q1.046875 3.109375 2.609375 8.484375q3.984375 -10.046875 7.703125 -15.84375q3.734375 -5.8125 7.109375 -8.765625q3.390625 -2.953125 6.25 -3.8125q2.859375 -0.875 5.28125 -0.875q5.546875 0 8.3125 3.046875q2.78125 3.03125 2.78125 7.703125q0 3.8125 -2.78125 6.765625q-2.765625 2.9375 -6.75 2.9375q-3.46875 0 -5.296875 -1.375q-1.8125 -1.390625 -3.03125 -2.78125q-1.71875 0.875 -3.890625 3.390625q-2.171875 2.5 -4.859375 7.703125q-2.6875 5.203125 -6.5 14.21875q2.609375 6.75 5.109375 12.90625q2.515625 6.15625 5.03125 11.09375q2.515625 4.9375 4.859375 7.796875q2.34375 2.859375 4.421875 2.859375q2.765625 0 4.578125 -2.859375q1.828125 -2.859375 2.875 -10.484375l7.96875 1.21875q-0.34375 3.984375 -1.5625 8.5q-1.203125 4.5 -3.640625 8.578125q-2.421875 4.0625 -6.40625 6.671875q-3.984375 2.59375 -10.0625 2.59375q-4.328125 0 -7.453125 -1.390625q-3.109375 -1.375 -5.796875 -4.84375q-2.6875 -3.46875 -5.546875 -9.796875q-2.859375 -6.328125 -7.015625 -16.203125l-0.1875 0q-3.640625 10.734375 -7.015625 17.234375q-3.375 6.5 -6.59375 9.71875q-3.203125 3.203125 -6.40625 4.234375q-3.203125 1.046875 -6.15625 1.046875z" fill-rule="nonzero"/><path fill="#000000" d="m379.36218 121.260994c3.5776367 22.375954 14.779388 94.61991 3.649109 134.98877c-11.13028 40.368866 -67.88422 109.59488 -70.430786 107.224335c-2.5465698 -2.370514 46.99057 -81.200806 55.151398 -121.44748c8.160828 -40.246674 -8.124817 -99.90498 -6.186432 -120.03258c1.938385 -20.12761 14.239075 -23.108994 17.816711 -0.73303986z" fill-rule="evenodd"/><path fill="#000000" d="m357.66226 136.76596c4.948761 19.783966 20.613617 83.68619 13.780518 120.73221c-6.8330994 37.04599 -52.31201 103.47296 -54.779053 101.54385c-2.4670715 -1.9291077 35.795654 -76.41052 39.976746 -113.11847c4.181061 -36.707947 -15.060577 -88.93625 -14.890289 -107.12918c0.17028809 -18.192932 10.963318 -21.81237 15.912079 -2.0284119z" fill-rule="evenodd"/><path fill="#000000" d="m337.5298 153.51408c5.9579163 17.37622 24.915344 73.52609 21.632172 107.305954c-3.2831726 33.779877 -38.97046 96.91446 -41.33127 95.37326c-2.3608398 -1.5411682 26.235779 -71.34857 27.166382 -104.62033c0.93063354 -33.271774 -20.338196 -78.66708 -21.582733 -95.01024c-1.2445679 -16.34314 8.157501 -20.424866 14.115448 -3.048645z" fill-rule="evenodd"/><path fill="#000000" d="m320.92917 172.6002c6.7053223 15.1306305 28.107544 64.04376 27.773926 94.45186c-0.33358765 30.408112 -27.532928 89.21628 -29.775543 87.996765c-2.2426147 -1.2195129 18.062561 -65.51709 16.319855 -95.31384c-1.7427368 -29.796768 -24.38977 -68.9442 -26.776154 -83.46666c-2.386383 -14.522461 5.7526245 -18.798752 12.457916 -3.6681213z" fill-rule="evenodd"/><path fill="#000000" d="m172.70186 435.5199c-2.8259277 -22.485535 -11.600891 -95.07147 0.8741455 -135.04752c12.475052 -39.976013 71.510605 -107.263596 73.976135 -104.808685c2.4655151 2.4549103 -49.679565 79.584564 -59.183 119.53818c-9.503433 39.953613 4.773636 100.130585 2.1624298 120.18359c-2.6112213 20.052979 -15.003784 22.619934 -17.829712 0.13442993z" fill-rule="evenodd"/><path fill="#000000" d="m194.90698 420.7509c-4.2829742 -19.940765 -17.797516 -84.338806 -9.728165 -121.13785c8.069366 -36.79904 55.74347 -101.667496 58.144318 -99.65646c2.4008484 2.011032 -38.331497 75.172455 -43.739243 111.722626c-5.4077454 36.5502 12.072266 89.39993 11.29277 107.57855c-0.77948 18.17862 -11.686707 21.43393 -15.969681 1.4931335z" fill-rule="evenodd"/><path fill="#000000" d="m215.58731 404.6867c-5.3721313 -17.568054 -22.436752 -74.32794 -18.024384 -107.9816c4.412369 -33.653656 42.190933 -95.560074 44.49861 -93.94034c2.307663 1.6197205 -28.608307 70.4339 -30.652618 103.65866c-2.0442963 33.224792 17.690369 79.312836 18.38678 95.69006c0.6963959 16.377197 -8.836258 20.141296 -14.208389 2.5732117z" fill-rule="evenodd"/><path fill="#000000" d="m232.81635 386.16705c-6.194214 -15.348633 -25.944412 -64.957306 -24.592636 -95.33984c1.3517914 -30.382538 30.503006 -88.24959 32.70334 -86.95535c2.2003174 1.2942505 -20.245087 64.87964 -19.50142 94.720825c0.7436676 29.841187 22.064957 69.73056 23.96341 84.326294c1.8984528 14.595734 -6.3784637 18.59668 -12.572693 3.2480774z" fill-rule="evenodd"/></g></svg>