<?xml version="1.0" encoding="UTF-8"?>
<!DOCTYPE svg PUBLIC "-//W3C//DTD SVG 1.1//EN" "http://www.w3.org/Graphics/SVG/1.1/DTD/svg11.dtd">
<svg version="1.2" width="147.6mm" height="147.6mm" viewBox="0 0 14760 14760" preserveAspectRatio="xMidYMid" fill-rule="evenodd" stroke-width="28.222" stroke-linejoin="round" xmlns="http://www.w3.org/2000/svg" xmlns:ooo="http://xml.openoffice.org/svg/export" xmlns:xlink="http://www.w3.org/1999/xlink" xmlns:presentation="http://sun.com/xmlns/staroffice/presentation" xmlns:smil="http://www.w3.org/2001/SMIL20/" xmlns:anim="urn:oasis:names:tc:opendocument:xmlns:animation:1.0" xml:space="preserve">
 <defs class="ClipPathGroup">
  <clipPath id="presentation_clip_path" clipPathUnits="userSpaceOnUse">
   <rect x="0" y="0" width="14760" height="14760"/>
  </clipPath>
  <clipPath id="presentation_clip_path_shrink" clipPathUnits="userSpaceOnUse">
   <rect x="14" y="14" width="14731" height="14731"/>
  </clipPath>
 </defs>
 <defs class="TextShapeIndex">
  <g ooo:slide="id1" ooo:id-list="id3 id4 id5 id6 id7 id8 id9 id10 id11 id12 id13 id14 id15 id16 id17 id18 id19 id20 id21 id22"/>
 </defs>
 <defs class="EmbeddedBulletChars">
  <g id="bullet-char-template-57356" transform="scale(0.00048828125,-0.00048828125)">
   <path d="M 580,1141 L 1163,571 580,0 -4,571 580,1141 Z"/>
  </g>
  <g id="bullet-char-template-57354" transform="scale(0.00048828125,-0.00048828125)">
   <path d="M 8,1128 L 1137,1128 1137,0 8,0 8,1128 Z"/>
  </g>
  <g id="bullet-char-template-10146" transform="scale(0.00048828125,-0.00048828125)">
   <path d="M 174,0 L 602,739 174,1481 1456,739 174,0 Z M 1358,739 L 309,1346 659,739 1358,739 Z"/>
  </g>
  <g id="bullet-char-template-10132" transform="scale(0.00048828125,-0.00048828125)">
   <path d="M 2015,739 L 1276,0 717,0 1260,543 174,543 174,936 1260,936 717,1481 1274,1481 2015,739 Z"/>
  </g>
  <g id="bullet-char-template-10007" transform="scale(0.00048828125,-0.00048828125)">
   <path d="M 0,-2 C -7,14 -16,27 -25,37 L 356,567 C 262,823 215,952 215,954 215,979 228,992 255,992 264,992 276,990 289,987 310,991 331,999 354,1012 L 381,999 492,748 772,1049 836,1024 860,1049 C 881,1039 901,1025 922,1006 886,937 835,863 770,784 769,783 710,716 594,584 L 774,223 C 774,196 753,168 711,139 L 727,119 C 717,90 699,76 672,76 641,76 570,178 457,381 L 164,-76 C 142,-110 111,-127 72,-127 30,-127 9,-110 8,-76 1,-67 -2,-52 -2,-32 -2,-23 -1,-13 0,-2 Z"/>
  </g>
  <g id="bullet-char-template-10004" transform="scale(0.00048828125,-0.00048828125)">
   <path d="M 285,-33 C 182,-33 111,30 74,156 52,228 41,333 41,471 41,549 55,616 82,672 116,743 169,778 240,778 293,778 328,747 346,684 L 369,508 C 377,444 397,411 428,410 L 1163,1116 C 1174,1127 1196,1133 1229,1133 1271,1133 1292,1118 1292,1087 L 1292,965 C 1292,929 1282,901 1262,881 L 442,47 C 390,-6 338,-33 285,-33 Z"/>
  </g>
  <g id="bullet-char-template-9679" transform="scale(0.00048828125,-0.00048828125)">
   <path d="M 813,0 C 632,0 489,54 383,161 276,268 223,411 223,592 223,773 276,916 383,1023 489,1130 632,1184 813,1184 992,1184 1136,1130 1245,1023 1353,916 1407,772 1407,592 1407,412 1353,268 1245,161 1136,54 992,0 813,0 Z"/>
  </g>
  <g id="bullet-char-template-8226" transform="scale(0.00048828125,-0.00048828125)">
   <path d="M 346,457 C 273,457 209,483 155,535 101,586 74,649 74,723 74,796 101,859 155,911 209,963 273,989 346,989 419,989 480,963 531,910 582,859 608,796 608,723 608,648 583,586 532,535 482,483 420,457 346,457 Z"/>
  </g>
  <g id="bullet-char-template-8211" transform="scale(0.00048828125,-0.00048828125)">
   <path d="M -4,459 L 1135,459 1135,606 -4,606 -4,459 Z"/>
  </g>
  <g id="bullet-char-template-61548" transform="scale(0.00048828125,-0.00048828125)">
   <path d="M 173,740 C 173,903 231,1043 346,1159 462,1274 601,1332 765,1332 928,1332 1067,1274 1183,1159 1299,1043 1357,903 1357,740 1357,577 1299,437 1183,322 1067,206 928,148 765,148 601,148 462,206 346,322 231,437 173,577 173,740 Z"/>
  </g>
 </defs>
 <g>
  <g id="id2" class="Master_Slide">
   <g id="bg-id2" class="Background"/>
   <g id="bo-id2" class="BackgroundObjects"/>
  </g>
 </g>
 <g class="SlideGroup">
  <g>
   <g id="container-id1">
    <g id="id1" class="Slide" clip-path="url(#presentation_clip_path)">
     <g class="Page">
      <g class="com.sun.star.drawing.ClosedBezierShape">
       <g id="id3">
        <rect class="BoundingBox" stroke="none" fill="none" x="6407" y="6217" width="1939" height="2024"/>
        <path fill="rgb(0,0,0)" stroke="none" d="M 6695,8239 C 6607,8239 6537,8216 6486,8171 6434,8126 6408,8068 6408,7995 6408,7923 6429,7864 6472,7821 6515,7777 6564,7755 6621,7755 6683,7755 6729,7771 6759,7803 6789,7836 6807,7868 6815,7902 6866,7892 6920,7833 6977,7727 7034,7622 7101,7454 7179,7225 7135,7106 7099,7004 7070,6917 7042,6831 7012,6752 6981,6683 6955,6626 6932,6588 6912,6569 6891,6549 6865,6538 6834,6535 6798,6535 6762,6557 6727,6599 6693,6642 6670,6728 6660,6857 L 6478,6838 C 6481,6783 6491,6721 6509,6652 6527,6582 6555,6514 6592,6447 6630,6379 6681,6324 6747,6282 6813,6239 6895,6218 6993,6218 7094,6218 7171,6247 7223,6305 7276,6363 7322,6443 7361,6543 7379,6590 7395,6636 7410,6683 7426,6729 7445,6793 7468,6873 7528,6723 7585,6605 7640,6519 7696,6432 7749,6367 7799,6323 7850,6279 7896,6250 7939,6238 7981,6225 8021,6218 8057,6218 8140,6218 8202,6241 8243,6286 8284,6331 8305,6388 8305,6458 8305,6515 8284,6565 8243,6609 8202,6653 8151,6675 8092,6675 8040,6675 8001,6665 7973,6644 7947,6623 7924,6603 7906,6582 7880,6595 7851,6620 7819,6658 7787,6695 7750,6753 7710,6830 7670,6907 7622,7013 7565,7147 7604,7248 7642,7344 7679,7435 7717,7527 7755,7610 7792,7683 7829,7757 7865,7815 7900,7857 7935,7900 7968,7921 7999,7921 8040,7921 8074,7900 8101,7857 8129,7815 8150,7737 8165,7623 L 8344,7650 C 8338,7709 8327,7773 8309,7840 8291,7907 8264,7971 8227,8032 8191,8092 8144,8142 8084,8181 8025,8219 7950,8239 7860,8239 7795,8239 7739,8228 7693,8208 7646,8187 7603,8151 7563,8100 7523,8048 7482,7975 7439,7881 7397,7786 7345,7665 7283,7518 L 7280,7518 C 7225,7678 7173,7808 7123,7904 7072,8001 7023,8073 6975,8121 6928,8169 6880,8200 6832,8216 6784,8231 6739,8239 6695,8239 Z"/>
       </g>
      </g>
      <g class="com.sun.star.drawing.ClosedBezierShape">
       <g id="id4">
        <rect class="BoundingBox" stroke="none" fill="none" x="4087" y="4978" width="2388" height="7574"/>
        <path fill="rgb(0,0,0)" stroke="none" d="M 4255,12080 C 4171,11414 3912,9265 4281,8082 4650,6900 6398,4908 6471,4981 6544,5053 5000,7336 4719,8518 4437,9701 4860,11482 4783,12076 4705,12669 4339,12745 4255,12080 Z"/>
       </g>
      </g>
      <g class="com.sun.star.drawing.ClosedBezierShape">
       <g id="id5">
        <rect class="BoundingBox" stroke="none" fill="none" x="4549" y="5106" width="1800" height="6941"/>
        <path fill="rgb(0,0,0)" stroke="none" d="M 4912,11642 C 4785,11052 4385,9146 4624,8057 4863,6968 6274,5048 6345,5108 6417,5167 5211,7333 5051,8414 4891,9496 5408,11060 5385,11598 5362,12136 5039,12233 4912,11642 Z"/>
       </g>
      </g>
      <g class="com.sun.star.drawing.ClosedBezierShape">
       <g id="id6">
        <rect class="BoundingBox" stroke="none" fill="none" x="4969" y="5189" width="1344" height="6322"/>
        <path fill="rgb(0,0,0)" stroke="none" d="M 5524,11167 C 5365,10647 4860,8967 4991,7971 5121,6975 6240,5143 6308,5191 6376,5239 5461,7276 5401,8258 5340,9242 5924,10606 5945,11091 5966,11576 5683,11687 5524,11167 Z"/>
       </g>
      </g>
      <g class="com.sun.star.drawing.ClosedBezierShape">
       <g id="id7">
        <rect class="BoundingBox" stroke="none" fill="none" x="5303" y="5222" width="1113" height="5688"/>
        <path fill="rgb(0,0,0)" stroke="none" d="M 6034,10619 C 5851,10164 5266,8696 5306,7797 5346,6898 6209,5185 6275,5224 6340,5262 5675,7144 5697,8026 5719,8910 6350,10091 6407,10523 6463,10955 6218,11073 6034,10619 Z"/>
       </g>
      </g>
      <g class="com.sun.star.drawing.PolyPolygonShape">
       <g id="id8">
        <rect class="BoundingBox" stroke="none" fill="none" x="3118" y="7830" width="919" height="380"/>
        <path fill="rgb(0,0,0)" stroke="none" d="M 4036,8033 L 3769,7830 3119,8004 3385,8208 4036,8033 Z"/>
       </g>
      </g>
      <g class="com.sun.star.drawing.PolyPolygonShape">
       <g id="id9">
        <rect class="BoundingBox" stroke="none" fill="none" x="3268" y="8080" width="780" height="486"/>
        <path fill="rgb(0,0,0)" stroke="none" d="M 4047,8080 L 3919,8389 3269,8564 3397,8255 4047,8080 Z"/>
       </g>
      </g>
      <g class="com.sun.star.drawing.ClosedBezierShape">
       <g id="id10">
        <rect class="BoundingBox" stroke="none" fill="none" x="8391" y="2316" width="2232" height="7635"/>
        <path fill="rgb(0,0,0)" stroke="none" d="M 10371,2778 C 10477,3441 10809,5579 10479,6774 10150,7968 8469,10017 8394,9947 8319,9877 9785,7544 10027,6353 10268,5162 9786,3396 9844,2800 9901,2204 10265,2116 10371,2778 Z"/>
       </g>
      </g>
      <g class="com.sun.star.drawing.ClosedBezierShape">
       <g id="id11">
        <rect class="BoundingBox" stroke="none" fill="none" x="8512" y="2843" width="1677" height="6976"/>
        <path fill="rgb(0,0,0)" stroke="none" d="M 9729,3237 C 9875,3823 10339,5714 10137,6811 9934,7907 8588,9873 8515,9816 8442,9759 9575,7554 9698,6468 9822,5382 9253,3836 9258,3297 9263,2759 9582,2652 9729,3237 Z"/>
       </g>
      </g>
      <g class="com.sun.star.drawing.ClosedBezierShape">
       <g id="id12">
        <rect class="BoundingBox" stroke="none" fill="none" x="8546" y="3399" width="1240" height="6336"/>
        <path fill="rgb(0,0,0)" stroke="none" d="M 9133,3733 C 9309,4247 9870,5910 9773,6909 9676,7908 8619,9777 8550,9732 8480,9686 9326,7620 9354,6636 9381,5651 8752,4307 8715,3823 8678,3339 8956,3219 9133,3733 Z"/>
       </g>
      </g>
      <g class="com.sun.star.drawing.ClosedBezierShape">
       <g id="id13">
        <rect class="BoundingBox" stroke="none" fill="none" x="8260" y="4017" width="1205" height="5683"/>
        <path fill="rgb(0,0,0)" stroke="none" d="M 8641,4298 C 8840,4746 9473,6194 9463,7094 9454,7993 8648,9734 8582,9698 8516,9662 9117,7758 9065,6877 9014,5995 8343,4836 8273,4407 8202,3977 8443,3850 8641,4298 Z"/>
       </g>
      </g>
      <g class="com.sun.star.drawing.ClosedBezierShape">
       <g id="id14">
        <rect class="BoundingBox" stroke="none" fill="none" x="9679" y="6144" width="1724" height="601"/>
        <path fill="rgb(255,255,255)" stroke="none" d="M 9680,6619 L 9680,6619 C 9676,6605 9685,6590 9699,6586 L 11340,6146 C 11346,6144 11354,6145 11360,6148 11366,6152 11371,6158 11373,6165 L 11400,6270 C 11404,6284 11396,6299 11381,6303 L 9741,6743 C 9726,6747 9712,6738 9708,6724 L 9680,6619 Z"/>
       </g>
      </g>
      <g class="com.sun.star.drawing.ClosedBezierShape">
       <g id="id15">
        <rect class="BoundingBox" stroke="none" fill="none" x="9652" y="6118" width="1777" height="653"/>
        <path fill="none" stroke="rgb(0,0,0)" stroke-width="53" stroke-linejoin="round" d="M 9680,6619 L 9680,6619 C 9676,6605 9685,6590 9699,6586 L 11340,6146 C 11346,6144 11354,6145 11360,6148 11366,6152 11371,6158 11373,6165 L 11400,6270 C 11404,6284 11396,6299 11381,6303 L 9741,6743 C 9726,6747 9712,6738 9708,6724 L 9680,6619 Z"/>
       </g>
      </g>
      <g class="com.sun.star.drawing.PolyPolygonShape">
       <g id="id16">
        <rect class="BoundingBox" stroke="none" fill="none" x="10899" y="6041" width="1201" height="601"/>
        <path fill="rgb(0,0,0)" stroke="none" d="M 10899,6043 L 12098,6042 11060,6641 10899,6043 Z"/>
       </g>
      </g>
      <g class="com.sun.star.drawing.ClosedBezierShape">
       <g id="id17">
        <rect class="BoundingBox" stroke="none" fill="none" x="3197" y="7664" width="2078" height="696"/>
        <path fill="rgb(255,255,255)" stroke="none" d="M 3199,8233 L 3199,8233 C 3195,8218 3204,8203 3218,8199 L 5212,7665 C 5219,7663 5226,7664 5232,7668 5239,7672 5243,7678 5245,7685 L 5273,7789 C 5276,7804 5268,7819 5253,7823 L 3260,8357 C 3245,8361 3230,8352 3226,8337 L 3199,8233 Z"/>
       </g>
      </g>
      <g class="com.sun.star.drawing.ClosedBezierShape">
       <g id="id18">
        <rect class="BoundingBox" stroke="none" fill="none" x="3171" y="7637" width="2130" height="749"/>
        <path fill="none" stroke="rgb(0,0,0)" stroke-width="53" stroke-linejoin="round" d="M 3199,8233 L 3199,8233 C 3195,8218 3204,8203 3218,8199 L 5212,7665 C 5219,7663 5226,7664 5232,7668 5239,7672 5243,7678 5245,7685 L 5273,7789 C 5276,7804 5268,7819 5253,7823 L 3260,8357 C 3245,8361 3230,8352 3226,8337 L 3199,8233 Z"/>
       </g>
      </g>
      <g class="com.sun.star.drawing.ClosedBezierShape">
       <g id="id19">
        <rect class="BoundingBox" stroke="none" fill="none" x="5146" y="7459" width="126" height="406"/>
        <path fill="rgb(255,255,255)" stroke="none" d="M 5169,7832 L 5169,7832 C 5143,7791 5140,7723 5161,7681 5187,7630 5198,7556 5193,7459 5199,7556 5217,7630 5248,7679 L 5248,7679 C 5275,7720 5278,7788 5256,7830 L 5256,7830 C 5234,7873 5196,7874 5169,7832 Z"/>
       </g>
      </g>
      <g class="com.sun.star.drawing.ClosedBezierShape">
       <g id="id20">
        <rect class="BoundingBox" stroke="none" fill="none" x="9669" y="6727" width="72" height="272"/>
        <path fill="rgb(255,255,255)" stroke="none" d="M 9685,6993 L 9685,6993 C 9669,6977 9664,6933 9674,6894 9687,6847 9689,6792 9683,6728 9690,6792 9703,6832 9723,6851 L 9723,6851 C 9739,6866 9744,6910 9733,6950 L 9733,6950 C 9723,6989 9702,7008 9685,6993 Z"/>
       </g>
      </g>
      <g class="com.sun.star.drawing.ClosedBezierShape">
       <g id="id21">
        <rect class="BoundingBox" stroke="none" fill="none" x="9758" y="6715" width="125" height="407"/>
        <path fill="rgb(255,255,255)" stroke="none" d="M 9780,7090 L 9780,7090 C 9754,7049 9750,6981 9772,6938 9798,6888 9808,6814 9804,6716 9810,6814 9828,6887 9859,6936 L 9859,6936 C 9885,6978 9889,7046 9867,7088 L 9867,7088 C 9845,7131 9806,7132 9780,7090 Z"/>
       </g>
      </g>
      <g class="com.sun.star.drawing.ClosedBezierShape">
       <g id="id22">
        <rect class="BoundingBox" stroke="none" fill="none" x="5146" y="7649" width="127" height="401"/>
        <path fill="rgb(255,255,255)" stroke="none" d="M 5264,7689 L 5264,7689 C 5281,7735 5270,7802 5239,7838 5203,7882 5177,7952 5160,8048 5176,7951 5174,7876 5154,7822 L 5154,7822 C 5138,7776 5149,7709 5179,7672 L 5179,7672 C 5210,7635 5248,7643 5264,7689 Z"/>
       </g>
      </g>
     </g>
    </g>
   </g>
  </g>
 </g>
</svg>