<svg version="1.1" viewBox="0.0 0.0 557.8582677165355 557.8582677165355" fill="none" stroke="none" stroke-linecap="square" stroke-miterlimit="10" xmlns:xlink="http://www.w3.org/1999/xlink" xmlns="http://www.w3.org/2000/svg"><clipPath id="p.0"><path d="m0 0l557.8583 0l0 557.8583l-557.8583 0l0 -557.8583z" clip-rule="nonzero"/></clipPath><g clip-path="url(#p.0)"><path fill="#000000" fill-opacity="0.0" d="m0 0l557.8583 0l0 557.8583l-557.8583 0z" fill-rule="evenodd"/><path fill="#000000" d="m371.44196 402.1599c5.899536 -18.036285 24.658325 -76.31494 20.759949 -111.163605c-3.898407 -34.848663 -41.732758 -99.554565 -44.150238 -97.928406c-2.4174805 1.6261597 28.186554 73.32764 29.645386 107.68536c1.4588318 34.357697 -19.849884 81.559784 -20.892426 98.46091c-1.042511 16.901093 8.737793 20.982056 14.637329 2.9457397z" fill-rule="evenodd"/><path fill="#000000" d="m355.53494 386.4871c6.6927185 -15.712555 28.045898 -66.5061 27.264374 -98.04233c-0.78152466 -31.536255 -29.65982 -92.446655 -31.953522 -91.175125c-2.2937012 1.2715149 19.558472 67.89583 18.191315 98.804245c-1.3671265 30.908386 -24.14383 71.57733 -26.394165 86.64621c-2.2503662 15.068848 6.19928 19.479553 12.891998 3.7669983z" fill-rule="evenodd"/><path fill="#000000" d="m341.08752 369.9919c7.2108154 -13.588684 30.267853 -57.53827 31.992676 -85.907135c1.7247925 -28.36882 -19.488953 -85.27051 -21.64383 -84.30586c-2.1548462 0.9646301 12.318176 62.454025 8.714691 90.093704c-3.6035156 27.63971 -27.158447 62.391205 -30.335693 75.744415c-3.1772766 13.35321 4.0613403 17.963593 11.272156 4.374878z" fill-rule="evenodd"/><path fill="#000000" d="m329.86813 352.0269c7.5336914 -11.633362 31.661316 -49.276764 35.38214 -74.469666c3.7208252 -25.192902 -11.042419 -77.40187 -13.057251 -76.687744c-2.0148315 0.7141266 6.325714 56.55786 0.9682312 80.9725c-5.357483 24.414642 -29.230988 53.81784 -33.11319 65.51532c-3.8822021 11.697479 2.2863464 16.302917 9.820068 4.669586z" fill-rule="evenodd"/><path fill="#000000" d="m249.53453 402.51932c-6.5253754 -17.819733 -27.306534 -75.40918 -24.62648 -110.37314c2.680069 -34.96399 38.23407 -100.95152 40.70685 -99.410675c2.4727783 1.5408478 -25.6111 74.26752 -25.870193 108.6557c-0.25909424 34.388184 22.684006 80.818695 24.315659 97.67337c1.6316223 16.854706 -8.000458 21.274475 -14.525833 3.4547424z" fill-rule="evenodd"/><path fill="#000000" d="m264.8852 386.30078c-7.2369995 -15.469696 -30.349838 -65.487976 -30.66919 -97.032715c-0.3193512 -31.54477 26.416351 -93.426575 28.753052 -92.23584c2.3367004 1.1907349 -17.177673 68.5379 -14.732834 99.38022c2.4448242 30.842316 26.62703 70.69235 29.40187 85.67374c2.7748108 14.981384 -5.515869 19.684296 -12.752899 4.2145996z" fill-rule="evenodd"/><path fill="#000000" d="m278.74844 369.3113c-7.6806946 -13.32901 -32.25757 -56.447968 -34.971252 -84.739746c-2.7136688 -28.291779 16.501953 -85.899826 18.689178 -85.01094c2.1872559 0.88887024 -10.131577 62.846695 -5.5657654 90.34422c4.565796 27.497498 29.319336 61.406464 32.960632 74.6409c3.6412964 13.2344055 -3.432129 18.094604 -11.112793 4.765564z" fill-rule="evenodd"/><path fill="#000000" d="m289.3343 350.96548c-7.93515 -11.363556 -33.36194 -48.1427 -37.95961 -73.190796c-4.5976715 -25.048111 8.335007 -77.74115 10.37355 -77.09775c2.0385742 0.64338684 -4.3484497 56.744965 1.8577881 80.95813c6.2062073 24.213196 31.091492 52.76593 35.379547 64.320984c4.2880554 11.555084 -1.7161255 16.373016 -9.651276 5.00943z" fill-rule="evenodd"/><path fill="#000000" fill-opacity="0.0" d="m115.15031 148.00333l292.75592 0l0 164.28348l-292.75592 0z" fill-rule="evenodd"/><path fill="#000000" d="m209.83661 202.14507q4.5 0 6.9375 2.109375q2.453125 2.09375 2.453125 5.296875q0 1.09375 -0.609375 2.546875q-0.59375 1.453125 -1.9375 2.5q-1.34375 1.046875 -3.65625 1.046875q-2.1875 -0.09375 -3.75 -1.84375q-1.546875 -1.75 -1.140625 -4.359375q-0.109375 -0.09375 -0.453125 -0.140625q-0.34375 -0.0625 -0.84375 -0.0625q-1.703125 0 -2.8125 1.8125q-1.09375 1.796875 -1.75 4.703125q-0.640625 2.890625 -1.0 6.1875q-0.34375 3.296875 -0.640625 6.203125l12.890625 0l-0.6875 6.90625l-12.609375 0.1875q-0.296875 4.3125 -0.703125 10.0625q-0.390625 5.75 -0.890625 11.999985q-0.5 6.25 -1.0 12.0q-0.5 5.75 -1.0 9.9375q-0.5 4.609375 -1.65625 8.609375q-1.140625 4.0 -2.84375 7.1875q-1.703125 3.203125 -4.203125 5.5q-2.5 2.3125 -5.703125 3.5q-3.203125 1.203125 -7.296875 1.203125q-4.59375 0 -7.046875 -1.953125q-2.453125 -1.9375 -2.453125 -5.234375q0 -1.203125 0.609375 -2.703125q0.59375 -1.5 2.0 -2.609375q1.390625 -1.09375 3.59375 -1.0q2.296875 0.109375 3.796875 1.859375q1.5 1.75 1.09375 4.34375q0.609375 0.203125 1.3125 0.203125q1.6875 0 2.78125 -1.796875q1.109375 -1.796875 1.75 -4.703125q0.65625 -2.90625 1.0 -6.203125q0.359375 -3.296875 0.65625 -6.203125q0.40625 -4.296875 0.796875 -10.046875q0.40625 -5.75 0.859375 -12.0q0.453125 -6.2499847 0.890625 -11.937485q0.453125 -5.703125 0.765625 -9.90625l-8.0 0.09375l0.890625 -7.296875l8.0 0q0.90625 -7.703125 3.34375 -13.546875q2.453125 -5.859375 6.953125 -9.15625q4.5 -3.296875 11.3125 -3.296875z" fill-rule="nonzero"/><path fill="#000000" d="m285.5956 279.6138q-4.53125 0 -7.203125 -2.328125q-2.65625 -2.34375 -2.65625 -6.078125q0 -3.734375 2.1875 -6.0q2.203125 -2.265625 5.140625 -2.265625q3.203125 0 4.734375 1.671875q1.53125 1.671875 1.921875 3.390625q2.671875 -0.53125 5.609375 -5.984375q2.9375 -5.46875 6.9375 -17.343735q-2.265625 -6.125 -3.734375 -10.59375q-1.46875 -4.46875 -3.078125 -8.0625q-1.328125 -2.9375 -2.390625 -3.9375q-1.0625 -1.0 -2.671875 -1.140625q-1.859375 0 -3.671875 2.203125q-1.796875 2.203125 -2.328125 8.875l-6.265625 -0.671875q0.140625 -2.796875 1.0625 -6.390625q0.9375 -3.609375 2.875 -7.078125q1.9375 -3.46875 5.328125 -5.65625q3.40625 -2.203125 8.46875 -2.203125q5.203125 0 7.9375 3.0q2.734375 3.0 4.734375 8.1875q0.921875 2.40625 1.71875 4.8125q0.8125 2.390625 2.015625 6.53125q3.0625 -7.734375 5.921875 -12.203125q2.875 -4.46875 5.46875 -6.734375q2.609375 -2.265625 4.796875 -2.921875q2.203125 -0.671875 4.078125 -0.671875q4.265625 0 6.390625 2.328125q2.140625 2.328125 2.140625 5.9375q0 2.921875 -2.140625 5.203125q-2.125 2.265625 -5.203125 2.265625q-2.65625 0 -4.0625 -1.0625q-1.390625 -1.078125 -2.328125 -2.140625q-1.34375 0.65625 -3.015625 2.59375q-1.65625 1.9375 -3.71875 5.9375q-2.0625 4.0 -5.0 10.9375q2.0 5.1875 3.921875 9.921875q1.9375 4.7343597 3.875 8.54686q1.9375 3.796875 3.734375 6.0q1.796875 2.1875 3.40625 2.1875q2.125 0 3.515625 -2.1875q1.40625 -2.203125 2.21875 -8.078125l6.125 0.9375q-0.265625 3.0625 -1.203125 6.53125q-0.921875 3.46875 -2.796875 6.609375q-1.859375 3.125 -4.9375 5.125q-3.0625 2.0 -7.734375 2.0q-3.328125 0 -5.734375 -1.078125q-2.390625 -1.0625 -4.46875 -3.71875q-2.0625 -2.671875 -4.265625 -7.53125q-2.1875 -4.875 -5.390625 -12.468735l-0.140625 0q-2.796875 8.26561 -5.40625 13.26561q-2.59375 5.0 -5.0625 7.46875q-2.453125 2.453125 -4.921875 3.25q-2.46875 0.8125 -4.734375 0.8125z" fill-rule="nonzero"/></g></svg>